<mxfile host="app.diagrams.net" modified="2024-09-21T22:19:20.473Z" agent="Mozilla/5.0 (Macintosh; Intel Mac OS X 10_15_7) AppleWebKit/537.36 (KHTML, like Gecko) Chrome/128.0.0.0 Safari/537.36" etag="sMDy9noQXvYgvy1xct14" version="24.6.5" type="device">
  <diagram name="Page-1" id="VyRioaqCJOEZotvj94cl">
    <mxGraphModel dx="1431" dy="1238" grid="1" gridSize="15" guides="1" tooltips="1" connect="1" arrows="1" fold="1" page="1" pageScale="1" pageWidth="850" pageHeight="1100" math="0" shadow="0">
      <root>
        <mxCell id="0" />
        <mxCell id="1" parent="0" />
        <mxCell id="KW5ilzyh2ytc9Cl_tGzI-47" value="" style="dashed=0;html=1;rounded=1;fillColor=#DFE1E6;strokeColor=#DFE1E6;fontSize=12;align=center;fontStyle=1;strokeWidth=2;fontColor=#42526E;arcSize=0;" vertex="1" parent="1">
          <mxGeometry x="240" y="580" width="360" height="520" as="geometry" />
        </mxCell>
        <mxCell id="KW5ilzyh2ytc9Cl_tGzI-41" value="" style="rounded=1;whiteSpace=wrap;html=1;" vertex="1" parent="1">
          <mxGeometry x="354.25" y="400" width="135" height="71" as="geometry" />
        </mxCell>
        <mxCell id="KW5ilzyh2ytc9Cl_tGzI-1" value="" style="rounded=1;whiteSpace=wrap;html=1;" vertex="1" parent="1">
          <mxGeometry x="50" y="50" width="120" height="270" as="geometry" />
        </mxCell>
        <mxCell id="KW5ilzyh2ytc9Cl_tGzI-2" value="&lt;b&gt;SDK&lt;br&gt;&lt;/b&gt;" style="sketch=0;outlineConnect=0;fontColor=#232F3E;gradientColor=none;fillColor=#232F3D;strokeColor=none;dashed=0;verticalLabelPosition=bottom;verticalAlign=top;align=center;html=1;fontSize=12;fontStyle=0;aspect=fixed;pointerEvents=1;shape=mxgraph.aws4.external_sdk;" vertex="1" parent="1">
          <mxGeometry x="76" y="146" width="68" height="78" as="geometry" />
        </mxCell>
        <mxCell id="KW5ilzyh2ytc9Cl_tGzI-3" value="Publish current state" style="text;html=1;align=center;verticalAlign=middle;resizable=0;points=[];autosize=1;strokeColor=none;fillColor=none;fontFamily=Times New Roman;fontSize=15;" vertex="1" parent="1">
          <mxGeometry x="170" y="70" width="150" height="30" as="geometry" />
        </mxCell>
        <mxCell id="KW5ilzyh2ytc9Cl_tGzI-4" value="Updated state sent to device" style="text;html=1;align=center;verticalAlign=middle;resizable=0;points=[];autosize=1;strokeColor=none;fillColor=none;fontFamily=Times New Roman;fontSize=15;" vertex="1" parent="1">
          <mxGeometry x="170" y="150" width="190" height="30" as="geometry" />
        </mxCell>
        <mxCell id="KW5ilzyh2ytc9Cl_tGzI-5" value="Publish current state" style="text;html=1;align=center;verticalAlign=middle;resizable=0;points=[];autosize=1;strokeColor=none;fillColor=none;fontFamily=Times New Roman;fontSize=15;" vertex="1" parent="1">
          <mxGeometry x="180" y="250" width="150" height="30" as="geometry" />
        </mxCell>
        <mxCell id="KW5ilzyh2ytc9Cl_tGzI-6" value="App requests current device state" style="text;html=1;align=center;verticalAlign=middle;resizable=0;points=[];autosize=1;strokeColor=none;fillColor=none;fontFamily=Times New Roman;fontSize=15;" vertex="1" parent="1">
          <mxGeometry x="590" y="70" width="220" height="30" as="geometry" />
        </mxCell>
        <mxCell id="KW5ilzyh2ytc9Cl_tGzI-7" value="Current state returned" style="text;html=1;align=center;verticalAlign=middle;resizable=0;points=[];autosize=1;strokeColor=none;fillColor=none;fontFamily=Times New Roman;fontSize=15;" vertex="1" parent="1">
          <mxGeometry x="620" y="110" width="150" height="30" as="geometry" />
        </mxCell>
        <mxCell id="KW5ilzyh2ytc9Cl_tGzI-8" value="App requests device state change" style="text;html=1;align=center;verticalAlign=middle;resizable=0;points=[];autosize=1;strokeColor=none;fillColor=none;fontFamily=Times New Roman;fontSize=15;" vertex="1" parent="1">
          <mxGeometry x="590" y="194" width="220" height="30" as="geometry" />
        </mxCell>
        <mxCell id="KW5ilzyh2ytc9Cl_tGzI-9" value="State change published to app" style="text;html=1;align=center;verticalAlign=middle;resizable=0;points=[];autosize=1;strokeColor=none;fillColor=none;fontFamily=Times New Roman;fontSize=15;" vertex="1" parent="1">
          <mxGeometry x="600" y="250" width="200" height="30" as="geometry" />
        </mxCell>
        <mxCell id="KW5ilzyh2ytc9Cl_tGzI-10" value="&lt;h4&gt;&lt;span style=&quot;font-weight: normal;&quot;&gt;&lt;span style=&quot;background-color: initial;&quot;&gt;State&lt;br&gt;&lt;/span&gt;&lt;span style=&quot;background-color: initial;&quot;&gt;&amp;nbsp; &amp;nbsp; &amp;nbsp; &amp;nbsp;- Desired&lt;br&gt;&lt;/span&gt;&lt;span style=&quot;background-color: initial;&quot;&gt;&amp;nbsp; &amp;nbsp; &amp;nbsp; &amp;nbsp; &amp;nbsp;- Reported&lt;br&gt;&lt;/span&gt;&lt;span style=&quot;background-color: initial;&quot;&gt;&amp;nbsp; &amp;nbsp;- Delta&lt;/span&gt;&lt;/span&gt;&lt;/h4&gt;" style="text;html=1;align=center;verticalAlign=middle;resizable=0;points=[];autosize=1;strokeColor=none;fillColor=none;fontFamily=Times New Roman;fontSize=15;" vertex="1" parent="1">
          <mxGeometry x="460" y="60" width="120" height="130" as="geometry" />
        </mxCell>
        <mxCell id="KW5ilzyh2ytc9Cl_tGzI-11" value="Persist JSON data" style="text;html=1;align=center;verticalAlign=middle;resizable=0;points=[];autosize=1;strokeColor=none;fillColor=none;fontFamily=Times New Roman;fontSize=15;" vertex="1" parent="1">
          <mxGeometry x="396.5" y="290" width="130" height="30" as="geometry" />
        </mxCell>
        <mxCell id="KW5ilzyh2ytc9Cl_tGzI-12" value="" style="shape=datastore;html=1;labelPosition=center;verticalLabelPosition=bottom;align=center;verticalAlign=top;" vertex="1" parent="1">
          <mxGeometry x="419" y="210" width="85" height="80" as="geometry" />
        </mxCell>
        <mxCell id="KW5ilzyh2ytc9Cl_tGzI-13" value="" style="outlineConnect=0;verticalLabelPosition=bottom;verticalAlign=top;align=center;html=1;shape=mxgraph.aws3.actuator;fillColor=#000000;strokeColor=#d6b656;shadow=0;perimeterSpacing=0;fillStyle=solid;" vertex="1" parent="1">
          <mxGeometry x="419" y="70" width="78.5" height="94" as="geometry" />
        </mxCell>
        <mxCell id="KW5ilzyh2ytc9Cl_tGzI-14" value="" style="endArrow=classic;html=1;rounded=0;" edge="1" parent="1">
          <mxGeometry width="50" height="50" relative="1" as="geometry">
            <mxPoint x="180" y="100" as="sourcePoint" />
            <mxPoint x="310" y="100" as="targetPoint" />
          </mxGeometry>
        </mxCell>
        <mxCell id="KW5ilzyh2ytc9Cl_tGzI-15" value="" style="endArrow=classic;html=1;rounded=0;" edge="1" parent="1">
          <mxGeometry width="50" height="50" relative="1" as="geometry">
            <mxPoint x="190" y="289" as="sourcePoint" />
            <mxPoint x="320" y="289" as="targetPoint" />
          </mxGeometry>
        </mxCell>
        <mxCell id="KW5ilzyh2ytc9Cl_tGzI-16" value="" style="endArrow=classic;html=1;rounded=0;" edge="1" parent="1">
          <mxGeometry width="50" height="50" relative="1" as="geometry">
            <mxPoint x="191" y="289" as="sourcePoint" />
            <mxPoint x="321" y="289" as="targetPoint" />
          </mxGeometry>
        </mxCell>
        <mxCell id="KW5ilzyh2ytc9Cl_tGzI-23" value="" style="endArrow=classic;html=1;rounded=0;" edge="1" parent="1">
          <mxGeometry width="50" height="50" relative="1" as="geometry">
            <mxPoint x="630" y="289" as="sourcePoint" />
            <mxPoint x="760" y="289" as="targetPoint" />
          </mxGeometry>
        </mxCell>
        <mxCell id="KW5ilzyh2ytc9Cl_tGzI-26" value="" style="endArrow=classic;html=1;rounded=0;" edge="1" parent="1">
          <mxGeometry width="50" height="50" relative="1" as="geometry">
            <mxPoint x="320" y="184.5" as="sourcePoint" />
            <mxPoint x="190" y="184.5" as="targetPoint" />
          </mxGeometry>
        </mxCell>
        <mxCell id="KW5ilzyh2ytc9Cl_tGzI-27" value="" style="endArrow=classic;html=1;rounded=0;" edge="1" parent="1">
          <mxGeometry width="50" height="50" relative="1" as="geometry">
            <mxPoint x="765" y="224" as="sourcePoint" />
            <mxPoint x="635" y="224" as="targetPoint" />
          </mxGeometry>
        </mxCell>
        <mxCell id="KW5ilzyh2ytc9Cl_tGzI-28" value="" style="endArrow=classic;html=1;rounded=0;" edge="1" parent="1">
          <mxGeometry width="50" height="50" relative="1" as="geometry">
            <mxPoint x="635" y="146" as="sourcePoint" />
            <mxPoint x="765" y="146" as="targetPoint" />
          </mxGeometry>
        </mxCell>
        <mxCell id="KW5ilzyh2ytc9Cl_tGzI-32" value="" style="rounded=0;whiteSpace=wrap;html=1;fillColor=none;" vertex="1" parent="1">
          <mxGeometry x="360" y="40" width="230" height="290" as="geometry" />
        </mxCell>
        <mxCell id="KW5ilzyh2ytc9Cl_tGzI-29" value="" style="endArrow=classic;html=1;rounded=0;" edge="1" parent="1">
          <mxGeometry width="50" height="50" relative="1" as="geometry">
            <mxPoint x="760" y="100" as="sourcePoint" />
            <mxPoint x="630" y="100" as="targetPoint" />
          </mxGeometry>
        </mxCell>
        <mxCell id="KW5ilzyh2ytc9Cl_tGzI-33" value="AWS IoT" style="shape=ext;double=1;rounded=0;whiteSpace=wrap;html=1;fillColor=none;" vertex="1" parent="1">
          <mxGeometry x="360" y="40" width="160" height="20" as="geometry" />
        </mxCell>
        <mxCell id="KW5ilzyh2ytc9Cl_tGzI-34" style="edgeStyle=orthogonalEdgeStyle;rounded=0;orthogonalLoop=1;jettySize=auto;html=1;exitX=1;exitY=1;exitDx=0;exitDy=0;entryX=0.5;entryY=1;entryDx=0;entryDy=0;" edge="1" parent="1" source="KW5ilzyh2ytc9Cl_tGzI-32" target="KW5ilzyh2ytc9Cl_tGzI-32">
          <mxGeometry relative="1" as="geometry">
            <Array as="points" />
          </mxGeometry>
        </mxCell>
        <mxCell id="KW5ilzyh2ytc9Cl_tGzI-36" value="AWS IoT" style="html=1;shadow=0;dashed=0;shape=mxgraph.bootstrap.rrect;rSize=5;strokeColor=none;strokeWidth=1;fillColor=#FFBC26;fontColor=#FFFFFF;whiteSpace=wrap;align=center;verticalAlign=middle;spacingLeft=0;fontStyle=0;fontSize=16;spacing=5;" vertex="1" parent="1">
          <mxGeometry x="360" y="40" width="160" height="20" as="geometry" />
        </mxCell>
        <mxCell id="KW5ilzyh2ytc9Cl_tGzI-45" value="Start Device&#xa;Management" style="text;html=1;align=center;verticalAlign=middle;resizable=0;points=[];autosize=1;strokeColor=none;fillColor=none;fontFamily=Times New Roman;fontSize=15;perimeterSpacing=0;" vertex="1" parent="1">
          <mxGeometry x="388.25" y="411.5" width="100" height="50" as="geometry" />
        </mxCell>
        <mxCell id="KW5ilzyh2ytc9Cl_tGzI-46" value="" style="shape=image;html=1;verticalAlign=top;verticalLabelPosition=bottom;labelBackgroundColor=#ffffff;imageAspect=0;aspect=fixed;image=https://cdn4.iconfinder.com/data/icons/evil-icons-user-interface/64/play-128.png" vertex="1" parent="1">
          <mxGeometry x="350.75" y="412" width="48" height="48" as="geometry" />
        </mxCell>
        <mxCell id="KW5ilzyh2ytc9Cl_tGzI-59" value="&lt;div style=&quot;&quot;&gt;&lt;span style=&quot;font-size: 14px;&quot;&gt;Device State Management&lt;/span&gt;&lt;br&gt;&lt;/div&gt;" style="text;html=1;align=center;verticalAlign=middle;resizable=0;points=[];autosize=1;strokeColor=#82b366;fillColor=none;fontFamily=Times New Roman;fontSize=15;perimeterSpacing=0;gradientColor=#97d077;strokeWidth=2;" vertex="1" parent="1">
          <mxGeometry x="240" y="590" width="170" height="30" as="geometry" />
        </mxCell>
        <mxCell id="KW5ilzyh2ytc9Cl_tGzI-63" style="edgeStyle=orthogonalEdgeStyle;rounded=0;orthogonalLoop=1;jettySize=auto;html=1;entryX=0.5;entryY=0;entryDx=0;entryDy=0;" edge="1" parent="1" source="KW5ilzyh2ytc9Cl_tGzI-60" target="KW5ilzyh2ytc9Cl_tGzI-61">
          <mxGeometry relative="1" as="geometry">
            <Array as="points">
              <mxPoint x="420" y="810" />
              <mxPoint x="420" y="810" />
            </Array>
          </mxGeometry>
        </mxCell>
        <mxCell id="KW5ilzyh2ytc9Cl_tGzI-67" value="&lt;font face=&quot;Times New Roman&quot;&gt;Manage device&amp;nbsp;&lt;/font&gt;&lt;div&gt;&lt;font face=&quot;P2jlNmFdHwYRzer2Hqka&quot;&gt;states&lt;/font&gt;&lt;/div&gt;" style="edgeLabel;html=1;align=center;verticalAlign=middle;resizable=0;points=[];" vertex="1" connectable="0" parent="KW5ilzyh2ytc9Cl_tGzI-63">
          <mxGeometry x="-0.3061" relative="1" as="geometry">
            <mxPoint as="offset" />
          </mxGeometry>
        </mxCell>
        <mxCell id="KW5ilzyh2ytc9Cl_tGzI-60" value="&lt;div style=&quot;font-size: 15px;&quot;&gt;&lt;font style=&quot;font-size: 15px;&quot; face=&quot;Times New Roman&quot;&gt;State&lt;/font&gt;&lt;/div&gt;&lt;div style=&quot;font-size: 15px;&quot;&gt;&lt;font style=&quot;font-size: 15px;&quot; face=&quot;Y39L-Y1ASeR7akveKxPp&quot;&gt;Orchestration&lt;/font&gt;&lt;/div&gt;" style="rounded=1;whiteSpace=wrap;html=1;" vertex="1" parent="1">
          <mxGeometry x="352.5" y="710" width="135" height="71" as="geometry" />
        </mxCell>
        <mxCell id="KW5ilzyh2ytc9Cl_tGzI-61" value="&lt;div style=&quot;font-size: 15px;&quot;&gt;&lt;font style=&quot;font-size: 15px;&quot; face=&quot;Times New Roman&quot;&gt;Device Shadow&lt;/font&gt;&lt;/div&gt;&lt;div style=&quot;font-size: 15px;&quot;&gt;&lt;font style=&quot;font-size: 15px;&quot; face=&quot;qIgscWND54eTWHcwJK6v&quot;&gt;Interaction&lt;/font&gt;&lt;/div&gt;" style="rounded=1;whiteSpace=wrap;html=1;" vertex="1" parent="1">
          <mxGeometry x="352.5" y="830" width="135" height="71" as="geometry" />
        </mxCell>
        <mxCell id="KW5ilzyh2ytc9Cl_tGzI-62" value="&lt;div style=&quot;font-size: 15px;&quot;&gt;&lt;font style=&quot;font-size: 15px;&quot; face=&quot;Times New Roman&quot;&gt;&lt;br&gt;&lt;/font&gt;&lt;/div&gt;&lt;div style=&quot;font-size: 15px;&quot;&gt;&lt;font style=&quot;font-size: 15px;&quot; face=&quot;Times New Roman&quot;&gt;Event-Driven&lt;/font&gt;&lt;/div&gt;&lt;div style=&quot;font-size: 15px;&quot;&gt;&lt;font style=&quot;font-size: 15px;&quot; face=&quot;Times New Roman&quot;&gt;Architecture&lt;/font&gt;&lt;/div&gt;" style="rounded=1;whiteSpace=wrap;html=1;" vertex="1" parent="1">
          <mxGeometry x="354.25" y="950" width="135" height="71" as="geometry" />
        </mxCell>
        <mxCell id="KW5ilzyh2ytc9Cl_tGzI-66" style="edgeStyle=orthogonalEdgeStyle;rounded=0;orthogonalLoop=1;jettySize=auto;html=1;entryX=0.5;entryY=0;entryDx=0;entryDy=0;" edge="1" parent="1">
          <mxGeometry relative="1" as="geometry">
            <mxPoint x="420" y="902" as="sourcePoint" />
            <mxPoint x="420" y="951" as="targetPoint" />
            <Array as="points">
              <mxPoint x="420" y="931" />
              <mxPoint x="420" y="931" />
            </Array>
          </mxGeometry>
        </mxCell>
        <mxCell id="KW5ilzyh2ytc9Cl_tGzI-69" value="&lt;font style=&quot;font-size: 10px;&quot; face=&quot;Times New Roman&quot;&gt;Trigger real-time&lt;/font&gt;&lt;div style=&quot;font-size: 10px;&quot;&gt;&lt;font style=&quot;font-size: 10px;&quot; face=&quot;xW38CFI48rGtY5CGE9aG&quot;&gt;workflows&lt;/font&gt;&lt;/div&gt;" style="edgeLabel;html=1;align=center;verticalAlign=middle;resizable=0;points=[];" vertex="1" connectable="0" parent="KW5ilzyh2ytc9Cl_tGzI-66">
          <mxGeometry x="0.0612" y="-1" relative="1" as="geometry">
            <mxPoint as="offset" />
          </mxGeometry>
        </mxCell>
        <mxCell id="KW5ilzyh2ytc9Cl_tGzI-70" value="" style="sketch=0;points=[[0,0,0],[0.25,0,0],[0.5,0,0],[0.75,0,0],[1,0,0],[0,1,0],[0.25,1,0],[0.5,1,0],[0.75,1,0],[1,1,0],[0,0.25,0],[0,0.5,0],[0,0.75,0],[1,0.25,0],[1,0.5,0],[1,0.75,0]];outlineConnect=0;fontColor=#232F3E;fillColor=#7AA116;strokeColor=#ffffff;dashed=0;verticalLabelPosition=bottom;verticalAlign=top;align=center;html=1;fontSize=12;fontStyle=0;aspect=fixed;shape=mxgraph.aws4.resourceIcon;resIcon=mxgraph.aws4.iot_core;" vertex="1" parent="1">
          <mxGeometry x="360.75" y="700" width="28" height="28" as="geometry" />
        </mxCell>
        <mxCell id="KW5ilzyh2ytc9Cl_tGzI-71" value="" style="sketch=0;points=[[0,0,0],[0.25,0,0],[0.5,0,0],[0.75,0,0],[1,0,0],[0,1,0],[0.25,1,0],[0.5,1,0],[0.75,1,0],[1,1,0],[0,0.25,0],[0,0.5,0],[0,0.75,0],[1,0.25,0],[1,0.5,0],[1,0.75,0]];outlineConnect=0;fontColor=#232F3E;fillColor=#7AA116;strokeColor=#ffffff;dashed=0;verticalLabelPosition=bottom;verticalAlign=top;align=center;html=1;fontSize=12;fontStyle=0;aspect=fixed;shape=mxgraph.aws4.resourceIcon;resIcon=mxgraph.aws4.iot_core;" vertex="1" parent="1">
          <mxGeometry x="360" y="820" width="28" height="28" as="geometry" />
        </mxCell>
        <mxCell id="KW5ilzyh2ytc9Cl_tGzI-72" value="" style="sketch=0;points=[[0,0,0],[0.25,0,0],[0.5,0,0],[0.75,0,0],[1,0,0],[0,1,0],[0.25,1,0],[0.5,1,0],[0.75,1,0],[1,1,0],[0,0.25,0],[0,0.5,0],[0,0.75,0],[1,0.25,0],[1,0.5,0],[1,0.75,0]];outlineConnect=0;fontColor=#232F3E;fillColor=#E7157B;strokeColor=#ffffff;dashed=0;verticalLabelPosition=bottom;verticalAlign=top;align=center;html=1;fontSize=12;fontStyle=0;aspect=fixed;shape=mxgraph.aws4.resourceIcon;resIcon=mxgraph.aws4.eventbridge;" vertex="1" parent="1">
          <mxGeometry x="358" y="941" width="30" height="30" as="geometry" />
        </mxCell>
        <mxCell id="KW5ilzyh2ytc9Cl_tGzI-74" value="" style="endArrow=classic;html=1;rounded=0;exitX=0.458;exitY=1;exitDx=0;exitDy=0;exitPerimeter=0;" edge="1" parent="1">
          <mxGeometry width="50" height="50" relative="1" as="geometry">
            <mxPoint x="421.25" y="471" as="sourcePoint" />
            <mxPoint x="421.25" y="701" as="targetPoint" />
          </mxGeometry>
        </mxCell>
        <mxCell id="KW5ilzyh2ytc9Cl_tGzI-75" value="&lt;div style=&quot;font-family: &amp;quot;Times New Roman&amp;quot;; background-color: rgb(251, 251, 251); font-size: 14px;&quot;&gt;Handle app&lt;/div&gt;&lt;div style=&quot;font-family: &amp;quot;Times New Roman&amp;quot;; background-color: rgb(251, 251, 251); font-size: 14px;&quot;&gt;requests&lt;/div&gt;" style="edgeLabel;html=1;align=center;verticalAlign=middle;resizable=0;points=[];" vertex="1" connectable="0" parent="KW5ilzyh2ytc9Cl_tGzI-74">
          <mxGeometry x="-0.3043" y="2" relative="1" as="geometry">
            <mxPoint as="offset" />
          </mxGeometry>
        </mxCell>
      </root>
    </mxGraphModel>
  </diagram>
</mxfile>
